<?xml version="1.0" encoding="UTF-8"?>
<svg id="Camada_1" data-name="Camada 1" xmlns="http://www.w3.org/2000/svg" viewBox="0 0 1560 1940">
  <defs>
    <style>
      .cls-1 {
        fill: #ffcc1a;
      }

      .cls-1, .cls-2, .cls-3 {
        stroke-width: 0px;
      }

      .cls-2 {
        fill: #fff;
      }

      .cls-3 {
        fill: #233771;
      }
    </style>
  </defs>
  <rect class="cls-2" x="30.99" y="20" width="1498.01" height="1559.7"/>
  <rect class="cls-2" x="30.99" y="1579.7" width="1498.01" height="340.3"/>
  <g>
    <path class="cls-3" d="M352,1344.83c-1.85,14.32-5.2,26.91-10.05,37.76-4.85,10.86-11.55,19.28-20.09,25.27-8.55,6.02-19.52,9.01-32.9,9.01-14.79,0-26.91-3.22-36.37-9.7-9.47-6.46-16.97-15.35-22.51-26.67-5.55-11.31-9.36-24.59-11.44-39.83-2.08-15.24-3.12-31.4-3.12-48.5s.92-32.21,2.77-46.77c1.85-14.55,5.2-27.24,10.05-38.1,4.85-10.85,11.54-19.28,20.09-25.29,8.54-5.99,19.5-9,32.9-9,14.78,0,26.9,3.24,36.37,9.69,9.46,6.48,16.97,15.48,22.51,27.02,5.54,11.56,9.36,24.94,11.44,40.19,2.07,15.24,3.12,31.41,3.12,48.49s-.93,32.11-2.77,46.42ZM403.96,1161.93c-24.01-31.4-62.59-47.1-115.69-47.1-26.33,0-49.42,4.74-69.29,14.2-3.37,1.61-6.51,3.46-9.69,5.27v-165.65l-78.98,53.11v272.13l.15.14c-.02,1.71-.15,3.36-.15,5.08,0,27.26,2.88,51.74,8.66,73.44,5.77,21.71,14.9,40.17,27.36,55.42,12.47,15.24,28.29,26.92,47.46,34.99,19.16,8.07,41.92,12.12,68.25,12.12s49.41-4.74,69.27-14.2c19.85-9.46,36.37-22.4,49.54-38.8,13.16-16.39,22.98-35.79,29.44-58.19,6.47-22.39,9.7-46.52,9.7-72.39,0-54.96-12.01-98.14-36.03-129.56Z"/>
    <path class="cls-3" d="M605.49,1410.93c-2.34.47-4.43.7-6.27.7-1.86.47-3.84.69-5.93.69h-5.93c-6.52,0-11.4-1.85-14.64-5.57-3.26-3.72-4.88-10.91-4.88-21.61v-264.25l-79.49,51.59v219.63c0,23.25,6.51,42.18,19.52,56.82,13.01,14.64,31.84,21.97,56.48,21.97,7.89,0,14.99-.47,21.27-1.4,6.27-.93,11.5-2.09,15.69-3.49,5.11-1.39,9.29-3.01,12.55-4.87l-8.37-50.2Z"/>
    <path class="cls-3" d="M1143.23,1112.51c13.48,0,26.72,1.4,39.75,4.18,13,2.79,24.63,6.05,34.86,9.76,12.09,4.18,23.24,8.61,33.47,13.25l-23.71,54.38c-9.3-4.18-18.59-7.89-27.89-11.15-7.9-2.8-16.63-5.46-26.14-8.02-9.53-2.55-18.94-3.84-28.25-3.84-10.69,0-19.86,2.56-27.53,7.67-7.67,5.12-11.51,12.79-11.51,23.01,0,26.5,19.28,47.18,57.87,62.06,14.4,5.57,27.42,11.5,39.04,17.78,11.61,6.27,21.5,13.6,29.64,21.96,8.13,8.37,14.3,18.02,18.48,28.94,4.18,10.93,6.27,23.83,6.27,38.69,0,13.02-2.68,25.8-8.02,38.35-5.35,12.55-13.24,23.71-23.7,33.47-10.46,9.77-23.25,17.56-38.35,23.36-15.11,5.81-32.19,8.71-51.25,8.71-15.34,0-30.45-1.74-45.32-5.22-14.88-3.49-28.24-7.32-40.09-11.51-11.85-4.18-21.27-8.13-28.24-11.85l-10.46-4.87,25.8-58.57,9.07,4.88c6.03,3.73,13.7,7.67,23.01,11.85,9.29,4.18,19.28,8.01,29.98,11.5,10.68,3.49,20.45,5.23,29.28,5.23,16.26,0,28.35-3.24,36.25-9.76,7.9-6.51,11.85-15.1,11.85-25.8,0-12.09-4.3-23.12-12.9-33.12-8.6-9.99-21.51-18.24-38.69-24.75-35.8-13.48-61.48-28.82-77.04-46.02-15.58-17.19-23.36-39.51-23.36-66.93,0-13.01,3.02-25.44,9.07-37.3,6.03-11.85,14.3-22.3,24.75-31.37,10.46-9.07,22.89-16.15,37.31-21.27,14.4-5.11,29.98-7.67,46.71-7.67Z"/>
    <path class="cls-3" d="M1415.97,1410.93c-2.34.47-4.42.7-6.28.7-1.86.47-3.84.69-5.93.69h-5.93c-6.51,0-11.4-1.85-14.64-5.57-3.25-3.72-4.88-10.91-4.88-21.61v-264.25l-79.49,53.1v218.12c0,23.25,6.51,42.18,19.53,56.82,13.01,14.64,31.84,21.97,56.48,21.97,7.89,0,14.99-.47,21.27-1.4,6.27-.93,11.5-2.09,15.68-3.49,5.11-1.39,9.29-3.01,12.55-4.87l-8.36-50.2Z"/>
    <path class="cls-3" d="M859.03,1280.54c0,17.2-1.98,34.06-5.93,50.56-3.95,16.5-9.53,31.15-16.73,43.92-7.22,12.79-15.69,23.13-25.45,31.02-9.77,7.91-20.46,11.85-32.07,11.85-12.55,0-22.55-3.36-29.99-10.11-7.44-6.73-13.14-15.92-17.08-27.54-3.95-11.61-6.39-24.86-7.32-39.75-.94-14.87-1.4-30.44-1.4-46.71,0-17.66,1.4-33.92,4.18-48.81,2.79-14.87,7.67-27.65,14.64-38.35,6.97-10.69,16.15-19.05,27.55-25.1,11.38-6.04,25.9-9.07,43.58-9.07,7.43,0,15.79.94,25.1,2.79,9.29,1.86,16.26,3.48,20.91,4.88v100.4ZM978.42,1415.12c-2.33.47-4.42.7-6.27.7-1.86.47-3.84.69-5.93.69h-5.93c-6.51,0-11.4-1.85-14.64-5.57-3.25-3.72-4.88-10.91-4.88-21.61v-253.77l-16.98-2.24c-.31-.07-.6-.14-.96-.23-9.06-2.09-20.1-4.29-33.11-6.63-13.02-2.31-27.08-4.53-42.18-6.62-15.12-2.1-29.64-3.14-43.58-3.14-24.65,0-47.18,4.65-67.63,13.94-20.46,9.31-38,22.09-52.65,38.35-14.64,16.28-26.04,35.68-34.16,58.22-8.14,22.55-12.21,47.06-12.21,73.56s2.55,49.75,7.67,71.12c5.11,21.39,13,39.63,23.71,54.73,10.68,15.11,24.05,26.74,40.09,34.86,16.03,8.13,34.97,12.2,56.82,12.2,29.74,0,53.34-7.08,70.77-21.27,10.89-8.86,19.93-20.4,27.1-34.61,2.87,13.69,8.6,25.49,17.33,35.31,13.01,14.64,31.84,21.97,56.48,21.97,7.89,0,14.99-.47,21.27-1.4,6.27-.93,11.5-2.09,15.69-3.49,5.11-1.39,9.29-3.01,12.55-4.87l-8.37-50.2Z"/>
    <path class="cls-1" d="M1379.74,1045.84v39.55c0,7.08-5.25,12.83-11.73,12.83h-57.42c-11.77,0-16.22-16.83-6.26-23.68l57.43-39.55c7.81-5.38,17.98.75,17.98,10.86Z"/>
    <path class="cls-1" d="M567.84,1045.84v39.55c0,7.08-5.16,12.83-11.52,12.83h-56.41c-11.57,0-15.93-16.83-6.14-23.68l56.41-39.55c7.68-5.38,17.67.75,17.67,10.86Z"/>
  </g>
  <g>
    <polygon class="cls-3" points="151.5 1771.37 151.5 1755.51 183.33 1755.51 183.33 1743.17 151.5 1743.17 151.5 1728.28 187.54 1728.28 187.54 1715.55 135.73 1715.55 135.73 1784.1 188.81 1784.1 188.81 1771.37 151.5 1771.37"/>
    <path class="cls-3" d="M232.4,1730.63c-7.15,0-13.32,2.45-17.43,6.95v-6.17h-14.59v52.69h15.28v-26.05c0-9.7,5.29-14.2,12.63-14.2,6.76,0,10.67,3.92,10.67,12.44v27.81h15.28v-30.16c0-16.06-9.4-23.31-21.84-23.31Z"/>
    <path class="cls-3" d="M294.09,1769.02c-8.03,0-13.91-5.19-13.91-12.93s5.88-12.93,13.91-12.93,13.81,5.19,13.81,12.93-5.78,12.93-13.81,12.93ZM308.49,1731.41v6.76c-4.02-5.09-10.09-7.54-17.43-7.54-14.59,0-26.34,10.09-26.34,25.46s11.75,25.46,26.34,25.46c6.86,0,12.63-2.15,16.65-6.56v2.25c0,9.5-4.7,14.4-15.47,14.4-6.76,0-14.1-2.35-18.61-5.97l-6.07,10.97c6.17,4.8,15.87,7.25,25.85,7.25,19,0,29.58-9.01,29.58-28.6v-43.87h-14.49Z"/>
    <path class="cls-3" d="M361.47,1742.19c6.86,0,11.85,4.31,12.93,10.97h-25.95c1.08-6.76,6.07-10.97,13.03-10.97ZM388.8,1757.95c0-16.94-11.95-27.32-27.42-27.32s-28.11,11.36-28.11,27.13,11.85,27.13,30.07,27.13c9.5,0,16.84-2.94,21.74-8.52l-8.13-8.81c-3.62,3.43-7.64,5.09-13.22,5.09-8.03,0-13.61-4.02-15.08-10.58h39.86c.1-1.27.29-2.94.29-4.11Z"/>
    <path class="cls-3" d="M431.01,1730.63c-7.15,0-13.32,2.45-17.43,6.95v-6.17h-14.59v52.69h15.28v-26.05c0-9.7,5.29-14.2,12.63-14.2,6.76,0,10.67,3.92,10.67,12.44v27.81h15.28v-30.16c0-16.06-9.4-23.31-21.84-23.31Z"/>
    <path class="cls-3" d="M498.68,1730.63c-6.76,0-12.63,2.15-16.75,6.27v-25.46h-15.28v72.67h15.28v-26.05c0-9.7,5.29-14.2,12.63-14.2,6.76,0,10.67,3.92,10.67,12.44v27.81h15.28v-30.16c0-16.06-9.4-23.31-21.84-23.31Z"/>
    <path class="cls-3" d="M554.41,1774.6c-5.39,0-8.62-2.55-8.62-6.37,0-3.53,2.25-6.17,9.4-6.17h10.48v5.39c-1.76,4.8-6.17,7.15-11.26,7.15ZM555.58,1730.63c-8.42,0-16.94,2.25-22.72,6.37l5.48,10.67c3.82-3.04,9.6-4.9,15.18-4.9,8.23,0,12.14,3.82,12.14,10.38h-12.14c-16.06,0-22.62,6.46-22.62,15.77s7.35,15.96,19.68,15.96c7.74,0,13.22-2.55,16.06-7.35v6.56h14.3v-30.07c0-15.96-9.3-23.41-25.37-23.41Z"/>
    <path class="cls-3" d="M609.35,1738.37v-6.95h-14.59v52.69h15.28v-24.88c0-10.09,5.58-14.69,14-14.69,1.18,0,2.15.1,3.43.2v-14.1c-8.13,0-14.4,2.64-18.12,7.74Z"/>
    <path class="cls-3" d="M636.57,1784.1h15.28v-52.69h-15.28v52.69ZM644.21,1724.07c5.68,0,9.5-3.72,9.5-8.81,0-4.7-3.82-8.23-9.5-8.23s-9.5,3.72-9.5,8.52,3.82,8.52,9.5,8.52Z"/>
    <path class="cls-3" d="M686.13,1774.6c-5.39,0-8.62-2.55-8.62-6.37,0-3.53,2.25-6.17,9.4-6.17h10.48v5.39c-1.76,4.8-6.17,7.15-11.26,7.15ZM687.3,1730.63c-8.42,0-16.94,2.25-22.72,6.37l5.48,10.67c3.82-3.04,9.6-4.9,15.18-4.9,8.23,0,12.14,3.82,12.14,10.38h-12.14c-16.06,0-22.62,6.46-22.62,15.77s7.35,15.96,19.68,15.96c7.74,0,13.22-2.55,16.06-7.35v6.56h14.3v-30.07c0-15.96-9.3-23.41-25.37-23.41Z"/>
    <path class="cls-3" d="M777.89,1773.33c-7.54,0-12.24-3.53-12.24-8.52,0-4.21,2.25-7.35,8.52-10.97l16.55,15.47c-3.72,2.64-8.13,4.02-12.83,4.02ZM780.05,1725.05c4.41,0,6.76,2.35,6.76,5.68,0,3.13-2.15,5.68-8.91,9.3-4.21-4.11-5.29-6.07-5.29-8.72,0-3.62,2.74-6.27,7.44-6.27ZM816.28,1775.58l-8.03-7.44c2.94-4.41,4.99-9.7,6.27-15.57l-12.24-3.82c-.78,4.02-1.96,7.64-3.43,10.67l-12.54-11.65c9.3-5.09,13.42-10.28,13.42-17.33,0-9.7-7.83-15.77-19.68-15.77-12.93,0-21.35,6.86-21.35,16.84,0,4.9,2.06,9.3,7.05,14.49-10.48,5.88-15.08,11.85-15.08,20.47,0,10.97,11.07,18.8,26.15,18.8,8.81,0,16.65-2.74,22.92-7.64l8.23,7.64,8.32-9.7Z"/>
    <rect class="cls-3" x="854.28" y="1715.55" width="15.87" height="68.55"/>
    <path class="cls-3" d="M917.35,1730.63c-7.15,0-13.32,2.45-17.43,6.95v-6.17h-14.59v52.69h15.28v-26.05c0-9.7,5.29-14.2,12.63-14.2,6.76,0,10.67,3.92,10.67,12.44v27.81h15.28v-30.16c0-16.06-9.4-23.31-21.84-23.31Z"/>
    <path class="cls-3" d="M970.73,1784.89c15.77,0,24.88-6.95,24.88-16.75,0-20.76-31.83-12.05-31.83-21.06,0-2.74,2.94-4.9,9.79-4.9,4.8,0,9.99.98,15.18,3.92l5.09-10.87c-4.99-2.94-13.03-4.6-20.27-4.6-15.38,0-24.39,7.05-24.39,17.04,0,21.06,31.83,12.24,31.83,20.86,0,2.94-2.64,4.8-9.7,4.8-6.46,0-13.61-2.06-18.31-5.09l-5.09,10.97c4.9,3.23,13.91,5.68,22.82,5.68Z"/>
    <path class="cls-3" d="M1034.88,1770.78c-1.66,1.27-3.92,1.96-6.17,1.96-4.11,0-6.56-2.45-6.56-6.95v-21.45h13.12v-11.75h-13.12v-12.83h-15.28v12.83h-8.13v11.75h8.13v21.64c0,12.54,7.25,18.9,19.68,18.9,4.7,0,9.3-1.08,12.44-3.33l-4.11-10.77Z"/>
    <path class="cls-3" d="M1067.68,1774.6c-5.39,0-8.62-2.55-8.62-6.37,0-3.53,2.25-6.17,9.4-6.17h10.48v5.39c-1.76,4.8-6.17,7.15-11.26,7.15ZM1068.86,1730.63c-8.42,0-16.94,2.25-22.72,6.37l5.48,10.67c3.82-3.04,9.6-4.9,15.18-4.9,8.23,0,12.14,3.82,12.14,10.38h-12.14c-16.06,0-22.62,6.46-22.62,15.77s7.35,15.96,19.69,15.96c7.74,0,13.22-2.55,16.06-7.35v6.56h14.3v-30.07c0-15.96-9.3-23.41-25.37-23.41Z"/>
    <rect class="cls-3" x="1108.03" y="1711.43" width="15.28" height="72.67"/>
    <path class="cls-3" d="M1157.59,1774.6c-5.39,0-8.62-2.55-8.62-6.37,0-3.53,2.25-6.17,9.4-6.17h10.48v5.39c-1.76,4.8-6.17,7.15-11.26,7.15ZM1158.76,1730.63c-8.42,0-16.94,2.25-22.72,6.37l5.48,10.67c3.82-3.04,9.6-4.9,15.18-4.9,8.23,0,12.14,3.82,12.14,10.38h-12.14c-16.06,0-22.62,6.46-22.62,15.77s7.35,15.96,19.69,15.96c7.74,0,13.22-2.55,16.06-7.35v6.56h14.3v-30.07c0-15.96-9.3-23.41-25.37-23.41Z"/>
    <path class="cls-3" d="M1223.89,1772.35c-7.74,0-13.81-5.39-13.81-14.59s6.07-14.59,13.81-14.59c4.8,0,9.01,2.25,11.85,7.25l11.85-6.37c-3.82-8.62-12.54-13.42-23.6-13.42-17.14,0-29.38,11.26-29.38,27.13,0,13.71,9.11,23.99,22.72,26.54l-2.35,9.4h3.33c3.43,0,4.8,1.18,4.8,2.84,0,1.86-1.47,3.13-5.09,3.13-2.35,0-4.51-.59-6.37-1.47l-2.35,6.56c2.25,1.27,5.68,2.06,9.11,2.06,8.72,0,14.4-3.72,14.4-9.7,0-4.02-2.55-7.44-8.52-8.13l.98-4.11c10.48-.39,18.71-5.19,22.33-13.32l-11.85-6.46c-2.84,5.09-7.05,7.25-11.85,7.25Z"/>
    <path class="cls-3" d="M1280.79,1772.35c-7.64,0-13.52-5.48-13.52-14.59s5.88-14.59,13.52-14.59,13.42,5.48,13.42,14.59-5.78,14.59-13.42,14.59ZM1280.79,1784.89c16.75,0,28.89-11.26,28.89-27.13s-12.14-27.13-28.89-27.13-28.99,11.26-28.99,27.13,12.24,27.13,28.99,27.13ZM1287.94,1724.95c6.86,0,11.26-5.58,11.46-14h-7.74c-.2,3.23-2.06,5.29-4.7,5.29-3.53,0-6.95-6.27-13.71-6.27s-11.26,5.58-11.46,14.3h7.74c.2-3.53,2.06-5.48,4.7-5.48,3.53,0,6.95,6.17,13.71,6.17Z"/>
    <path class="cls-3" d="M1344.16,1742.19c6.86,0,11.85,4.31,12.93,10.97h-25.95c1.08-6.76,6.07-10.97,13.03-10.97ZM1371.48,1757.95c0-16.94-11.95-27.32-27.42-27.32s-28.11,11.36-28.11,27.13,11.85,27.13,30.07,27.13c9.5,0,16.84-2.94,21.74-8.52l-8.13-8.81c-3.62,3.43-7.64,5.09-13.22,5.09-8.03,0-13.61-4.02-15.08-10.58h39.86c.1-1.27.29-2.94.29-4.11Z"/>
    <path class="cls-3" d="M1399.39,1784.89c15.77,0,24.88-6.95,24.88-16.75,0-20.76-31.83-12.05-31.83-21.06,0-2.74,2.94-4.9,9.79-4.9,4.8,0,9.99.98,15.18,3.92l5.09-10.87c-4.99-2.94-13.03-4.6-20.27-4.6-15.38,0-24.39,7.05-24.39,17.04,0,21.06,31.83,12.24,31.83,20.86,0,2.94-2.64,4.8-9.7,4.8-6.46,0-13.61-2.06-18.31-5.09l-5.09,10.97c4.9,3.23,13.91,5.68,22.82,5.68Z"/>
  </g>
</svg>