<?xml version="1.0" encoding="UTF-8"?>
<svg id="Camada_1" data-name="Camada 1" xmlns="http://www.w3.org/2000/svg" viewBox="0 0 3840 1940">
  <defs>
    <style>
      .cls-1 {
        fill: #ffcc1a;
      }

      .cls-1, .cls-2 {
        stroke-width: 0px;
      }

      .cls-2 {
        fill: #233771;
      }
    </style>
  </defs>
  <path class="cls-2" d="M787.64,1000.12c-4.89,37.88-13.75,71.19-26.58,99.9-12.83,28.73-30.55,51.01-53.16,66.86-22.63,15.91-51.63,23.84-87.04,23.84-39.11,0-71.19-8.52-96.22-25.66-25.05-17.08-44.89-40.6-59.55-70.56-14.68-29.91-24.75-65.05-30.25-105.36-5.5-40.32-8.24-83.07-8.24-128.3s2.44-85.22,7.33-123.71c4.89-38.5,13.75-72.06,26.58-100.79,12.83-28.7,30.53-51.01,53.16-66.9,22.58-15.85,51.58-23.82,87.04-23.82,39.09,0,71.15,8.56,96.22,25.64,25.03,17.15,44.89,40.96,59.55,71.47,14.66,30.57,24.75,65.99,30.25,106.31,5.48,40.32,8.24,83.09,8.24,128.28s-2.46,84.94-7.33,122.8ZM925.07,516.28c-63.52-83.07-165.57-124.61-306.04-124.61-69.64,0-130.74,12.54-183.29,37.56-8.92,4.27-17.23,9.16-25.64,13.94V4.97l-208.93,140.5v719.88l.4.38c-.06,4.52-.4,8.88-.4,13.45,0,72.11,7.61,136.86,22.9,194.27,15.28,57.43,39.41,106.27,72.38,146.59,32.99,40.32,74.83,71.21,125.54,92.57,50.69,21.35,110.88,32.06,180.54,32.06s130.7-12.53,183.24-37.56c52.52-25.03,96.22-59.25,131.04-102.64,34.82-43.36,60.78-94.67,77.89-153.95,17.1-59.23,25.66-123.07,25.66-191.51,0-145.38-31.78-259.62-95.31-342.73Z"/>
  <path class="cls-2" d="M1458.2,1174.97c-6.18,1.23-11.71,1.85-16.59,1.85-4.93,1.23-10.15,1.83-15.68,1.83h-15.68c-17.25,0-30.15-4.89-38.73-14.74-8.63-9.84-12.92-28.87-12.92-57.17V407.7l-210.27,136.48v581c0,61.5,17.21,111.58,51.65,150.31,34.42,38.73,84.22,58.11,149.4,58.11,20.88,0,39.64-1.23,56.26-3.7,16.59-2.46,30.42-5.52,41.49-9.22,13.51-3.67,24.58-7.97,33.21-12.9l-22.14-132.81Z"/>
  <path class="cls-2" d="M2880.69,385.56c35.65,0,70.68,3.7,105.14,11.07,34.4,7.37,65.16,16,92.2,25.81,31.98,11.07,61.48,22.78,88.55,35.06l-62.71,143.85c-24.6-11.07-49.18-20.88-73.79-29.49-20.91-7.39-43.98-14.45-69.16-21.22-25.22-6.74-50.12-10.16-74.72-10.16-28.28,0-52.54,6.78-72.83,20.29-20.29,13.55-30.44,33.84-30.44,60.87,0,70.09,51.01,124.82,153.09,164.16,38.09,14.74,72.53,30.42,103.27,47.04,30.72,16.59,56.87,35.97,78.4,58.08,21.5,22.14,37.82,47.68,48.88,76.55,11.05,28.91,16.59,63.04,16.59,102.36,0,34.44-7.1,68.24-21.22,101.45-14.15,33.21-35.04,62.72-62.7,88.53-27.68,25.84-61.5,46.44-101.45,61.8-39.96,15.36-85.15,23.03-135.57,23.03-40.58,0-80.54-4.61-119.89-13.81-39.37-9.22-74.7-19.37-106.06-30.44-31.36-11.07-56.26-21.5-74.7-31.36l-27.66-12.9,68.24-154.94,23.99,12.92c15.95,9.86,36.25,20.29,60.87,31.36,24.58,11.07,51.01,21.2,79.31,30.42,28.25,9.22,54.09,13.83,77.46,13.83,43.02,0,75-8.58,95.9-25.81,20.9-17.21,31.36-39.94,31.36-68.24,0-31.97-11.39-61.17-34.12-87.62-22.75-26.43-56.9-48.25-102.36-65.48-94.71-35.65-162.63-76.23-203.81-121.74-41.22-45.46-61.8-104.51-61.8-177.06,0-34.42,7.99-67.3,23.99-98.68,15.96-31.36,37.82-59,65.48-82.98,27.66-23.99,60.55-42.73,98.68-56.26,38.09-13.51,79.31-20.29,123.56-20.29Z"/>
  <path class="cls-2" d="M3602.18,1174.97c-6.18,1.23-11.71,1.85-16.61,1.85-4.93,1.23-10.15,1.83-15.68,1.83h-15.68c-17.23,0-30.15-4.89-38.73-14.74-8.6-9.84-12.92-28.87-12.92-57.17V407.7l-210.27,140.47v577c0,61.5,17.21,111.58,51.65,150.31,34.41,38.73,84.21,58.11,149.4,58.11,20.88,0,39.66-1.23,56.26-3.7,16.59-2.46,30.42-5.52,41.49-9.22,13.51-3.67,24.58-7.97,33.21-12.9l-22.12-132.81Z"/>
  <path class="cls-2" d="M2128.9,830.05c0,45.51-5.25,90.1-15.68,133.74-10.45,43.64-25.22,82.39-44.25,116.19-19.1,33.82-41.49,61.19-67.33,82.07-25.83,20.93-54.13,31.36-84.83,31.36-33.21,0-59.66-8.9-79.33-26.75-19.67-17.8-34.76-42.11-45.19-72.85-10.45-30.72-16.91-65.78-19.35-105.14-2.49-39.32-3.7-80.52-3.7-123.56,0-46.72,3.7-89.74,11.07-129.11,7.37-39.35,20.29-73.15,38.73-101.45,18.44-28.28,42.72-50.39,72.87-66.39,30.1-15.98,68.52-23.98,115.28-23.98,19.65,0,41.77,2.49,66.39,7.39,24.58,4.91,43.02,9.2,55.32,12.9v265.59ZM2444.72,1186.04c-6.16,1.23-11.68,1.85-16.59,1.85-4.93,1.23-10.15,1.83-15.68,1.83h-15.68c-17.23,0-30.15-4.89-38.73-14.75-8.6-9.84-12.92-28.87-12.92-57.17V446.49l-44.91-5.93c-.83-.19-1.59-.36-2.55-.6-23.96-5.52-53.18-11.34-87.6-17.53-34.44-6.12-71.64-11.98-111.58-17.51-39.98-5.55-78.39-8.31-115.28-8.31-65.2,0-124.82,12.3-178.91,36.88-54.11,24.62-100.53,58.42-139.26,101.45-38.73,43.06-68.88,94.39-90.36,154.01-21.54,59.66-32.29,124.5-32.29,194.59s6.76,131.59,20.29,188.13c13.51,56.58,34.4,104.85,62.72,144.79,28.26,39.98,63.63,70.73,106.06,92.23,42.41,21.5,92.5,32.27,150.31,32.27,78.67,0,141.09-18.74,187.22-56.26,28.81-23.43,52.71-53.96,71.68-91.57,7.58,36.22,22.75,67.43,45.85,93.42,34.42,38.73,84.22,58.11,149.4,58.11,20.88,0,39.67-1.23,56.26-3.7,16.59-2.46,30.42-5.52,41.49-9.22,13.51-3.67,24.58-7.97,33.21-12.89l-22.14-132.81Z"/>
  <path class="cls-1" d="M3506.35,209.18v104.61c0,18.74-13.89,33.93-31.04,33.93h-151.9c-31.12,0-42.9-44.51-16.55-62.65l151.93-104.61c20.67-14.23,47.57,2,47.57,28.72Z"/>
  <path class="cls-1" d="M1358.61,209.18v104.61c0,18.74-13.64,33.93-30.49,33.93h-149.23c-30.59,0-42.13-44.51-16.25-62.65l149.23-104.61c20.31-14.23,46.74,2,46.74,28.72Z"/>
  <polygon class="cls-2" points="66.5 1830.48 66.5 1783.69 160.37 1783.69 160.37 1747.3 66.5 1747.3 66.5 1703.4 172.79 1703.4 172.79 1665.85 20 1665.85 20 1868.03 176.54 1868.03 176.54 1830.48 66.5 1830.48"/>
  <path class="cls-2" d="M305.07,1710.33c-21.08,0-39.28,7.22-51.41,20.51v-18.2h-43.03v155.38h45.06v-76.83c0-28.59,15.6-41.88,37.26-41.88,19.93,0,31.48,11.55,31.48,36.68v82.02h45.06v-88.96c0-47.37-27.73-68.74-64.41-68.74Z"/>
  <path class="cls-2" d="M487.02,1823.55c-23.68,0-41.01-15.31-41.01-38.12s17.33-38.12,41.01-38.12,40.72,15.31,40.72,38.12-17.04,38.12-40.72,38.12ZM529.48,1712.64v19.93c-11.84-15.02-29.75-22.24-51.41-22.24-43.03,0-77.69,29.75-77.69,75.09s34.66,75.09,77.69,75.09c20.22,0,37.26-6.35,49.1-19.35v6.64c0,28.02-13.86,42.46-45.63,42.46-19.93,0-41.59-6.93-54.88-17.62l-17.91,32.35c18.2,14.15,46.79,21.37,76.25,21.37,56.03,0,87.22-26.57,87.22-84.34v-129.39h-42.75Z"/>
  <path class="cls-2" d="M685.73,1744.41c20.22,0,34.95,12.71,38.12,32.35h-76.54c3.18-19.93,17.91-32.35,38.41-32.35ZM766.31,1790.91c0-49.97-35.24-80.58-80.87-80.58s-82.89,33.5-82.89,80,34.95,80,88.67,80c28.02,0,49.68-8.66,64.12-25.13l-23.97-25.99c-10.69,10.11-22.53,15.02-38.99,15.02-23.68,0-40.15-11.84-44.48-31.19h117.55c.29-3.75.87-8.66.87-12.13Z"/>
  <path class="cls-2" d="M890.79,1710.33c-21.08,0-39.28,7.22-51.41,20.51v-18.2h-43.03v155.38h45.06v-76.83c0-28.59,15.6-41.88,37.26-41.88,19.93,0,31.48,11.55,31.48,36.68v82.02h45.06v-88.96c0-47.37-27.73-68.74-64.41-68.74Z"/>
  <path class="cls-2" d="M1090.36,1710.33c-19.93,0-37.26,6.35-49.39,18.48v-75.09h-45.06v214.3h45.06v-76.83c0-28.59,15.6-41.88,37.26-41.88,19.93,0,31.48,11.55,31.48,36.68v82.02h45.06v-88.96c0-47.37-27.73-68.74-64.41-68.74Z"/>
  <path class="cls-2" d="M1254.7,1840.01c-15.89,0-25.42-7.51-25.42-18.77,0-10.4,6.64-18.2,27.73-18.2h30.9v15.89c-5.2,14.15-18.2,21.08-33.21,21.08ZM1258.17,1710.33c-24.84,0-49.97,6.64-67.01,18.77l16.17,31.48c11.26-8.95,28.3-14.44,44.77-14.44,24.26,0,35.81,11.26,35.81,30.61h-35.81c-47.37,0-66.72,19.06-66.72,46.5s21.66,47.08,58.05,47.08c22.82,0,38.99-7.51,47.37-21.66v19.35h42.17v-88.67c0-47.08-27.44-69.03-74.8-69.03Z"/>
  <path class="cls-2" d="M1416.73,1733.15v-20.51h-43.03v155.38h45.06v-73.36c0-29.75,16.46-43.32,41.3-43.32,3.47,0,6.35.29,10.11.58v-41.59c-23.97,0-42.46,7.8-53.43,22.82Z"/>
  <path class="cls-2" d="M1497.02,1868.03h45.06v-155.38h-45.06v155.38ZM1519.55,1690.98c16.75,0,28.02-10.98,28.02-25.99,0-13.86-11.26-24.26-28.02-24.26s-28.02,10.98-28.02,25.13,11.26,25.13,28.02,25.13Z"/>
  <path class="cls-2" d="M1643.17,1840.01c-15.89,0-25.42-7.51-25.42-18.77,0-10.4,6.64-18.2,27.73-18.2h30.9v15.89c-5.2,14.15-18.2,21.08-33.21,21.08ZM1646.63,1710.33c-24.84,0-49.97,6.64-67.01,18.77l16.17,31.48c11.26-8.95,28.3-14.44,44.77-14.44,24.26,0,35.81,11.26,35.81,30.61h-35.81c-47.37,0-66.72,19.06-66.72,46.5s21.66,47.08,58.05,47.08c22.82,0,38.99-7.51,47.37-21.66v19.35h42.17v-88.67c0-47.08-27.44-69.03-74.8-69.03Z"/>
  <path class="cls-2" d="M1913.79,1836.26c-22.24,0-36.1-10.4-36.1-25.13,0-12.42,6.64-21.66,25.13-32.35l48.81,45.63c-10.98,7.8-23.97,11.84-37.84,11.84ZM1920.14,1693.87c13,0,19.93,6.93,19.93,16.75,0,9.24-6.35,16.75-26.28,27.44-12.42-12.13-15.6-17.91-15.6-25.7,0-10.69,8.09-18.48,21.95-18.48ZM2027.01,1842.9l-23.68-21.95c8.66-13,14.73-28.59,18.48-45.92l-36.1-11.26c-2.31,11.84-5.78,22.53-10.11,31.48l-36.97-34.37c27.44-15.02,39.57-30.33,39.57-51.12,0-28.59-23.11-46.5-58.05-46.5-38.12,0-62.96,20.22-62.96,49.68,0,14.44,6.07,27.44,20.8,42.75-30.9,17.33-44.48,34.95-44.48,60.36,0,32.35,32.64,55.45,77.11,55.45,25.99,0,49.1-8.09,67.58-22.53l24.26,22.53,24.55-28.59Z"/>
  <rect class="cls-2" x="2139.07" y="1665.85" width="46.79" height="202.17"/>
  <path class="cls-2" d="M2325.07,1710.33c-21.08,0-39.28,7.22-51.41,20.51v-18.2h-43.03v155.38h45.06v-76.83c0-28.59,15.6-41.88,37.26-41.88,19.93,0,31.48,11.55,31.48,36.68v82.02h45.06v-88.96c0-47.37-27.73-68.74-64.41-68.74Z"/>
  <path class="cls-2" d="M2482.48,1870.34c46.5,0,73.36-20.51,73.36-49.39,0-61.23-93.87-35.52-93.87-62.1,0-8.09,8.66-14.44,28.88-14.44,14.15,0,29.46,2.89,44.77,11.55l15.02-32.06c-14.73-8.66-38.41-13.57-59.79-13.57-45.34,0-71.92,20.8-71.92,50.25,0,62.1,93.87,36.1,93.87,61.52,0,8.66-7.8,14.15-28.59,14.15-19.06,0-40.15-6.07-54.01-15.02l-15.02,32.35c14.44,9.53,41.01,16.75,67.29,16.75Z"/>
  <path class="cls-2" d="M2671.65,1828.75c-4.91,3.75-11.55,5.78-18.2,5.78-12.13,0-19.35-7.22-19.35-20.51v-63.25h38.7v-34.66h-38.7v-37.84h-45.06v37.84h-23.97v34.66h23.97v63.83c0,36.97,21.37,55.74,58.05,55.74,13.86,0,27.44-3.18,36.68-9.82l-12.13-31.77Z"/>
  <path class="cls-2" d="M2768.41,1840.01c-15.88,0-25.42-7.51-25.42-18.77,0-10.4,6.64-18.2,27.73-18.2h30.9v15.89c-5.2,14.15-18.2,21.08-33.21,21.08ZM2771.87,1710.33c-24.84,0-49.97,6.64-67.01,18.77l16.17,31.48c11.26-8.95,28.3-14.44,44.77-14.44,24.26,0,35.81,11.26,35.81,30.61h-35.81c-47.37,0-66.72,19.06-66.72,46.5s21.66,47.08,58.05,47.08c22.82,0,38.99-7.51,47.37-21.66v19.35h42.17v-88.67c0-47.08-27.44-69.03-74.8-69.03Z"/>
  <rect class="cls-2" x="2887.4" y="1653.72" width="45.06" height="214.3"/>
  <path class="cls-2" d="M3033.54,1840.01c-15.88,0-25.42-7.51-25.42-18.77,0-10.4,6.64-18.2,27.73-18.2h30.9v15.89c-5.2,14.15-18.2,21.08-33.21,21.08ZM3037.01,1710.33c-24.84,0-49.97,6.64-67.01,18.77l16.17,31.48c11.26-8.95,28.3-14.44,44.77-14.44,24.26,0,35.81,11.26,35.81,30.61h-35.81c-47.37,0-66.72,19.06-66.72,46.5s21.66,47.08,58.05,47.08c22.82,0,38.99-7.51,47.37-21.66v19.35h42.17v-88.67c0-47.08-27.44-69.03-74.8-69.03Z"/>
  <path class="cls-2" d="M3229.08,1833.37c-22.82,0-40.72-15.89-40.72-43.03s17.91-43.03,40.72-43.03c14.15,0,26.57,6.64,34.95,21.37l34.95-18.77c-11.26-25.42-36.97-39.57-69.61-39.57-50.54,0-86.65,33.21-86.65,80,0,40.43,26.86,70.76,67.01,78.27l-6.93,27.73h9.82c10.11,0,14.15,3.47,14.15,8.38,0,5.49-4.33,9.24-15.02,9.24-6.93,0-13.29-1.73-18.77-4.33l-6.93,19.35c6.64,3.75,16.75,6.07,26.86,6.07,25.7,0,42.46-10.98,42.46-28.59,0-11.84-7.51-21.95-25.13-23.97l2.89-12.13c30.9-1.16,55.16-15.31,65.85-39.28l-34.95-19.06c-8.38,15.02-20.8,21.37-34.95,21.37Z"/>
  <path class="cls-2" d="M3396.88,1833.37c-22.53,0-39.86-16.17-39.86-43.03s17.33-43.03,39.86-43.03,39.57,16.17,39.57,43.03-17.04,43.03-39.57,43.03ZM3396.88,1870.34c49.39,0,85.2-33.21,85.2-80s-35.81-80-85.2-80-85.49,33.21-85.49,80,36.1,80,85.49,80ZM3417.96,1693.58c20.22,0,33.21-16.46,33.79-41.3h-22.82c-.58,9.53-6.06,15.6-13.86,15.6-10.4,0-20.51-18.48-40.43-18.48s-33.21,16.46-33.79,42.17h22.82c.58-10.4,6.07-16.17,13.86-16.17,10.4,0,20.51,18.2,40.43,18.2Z"/>
  <path class="cls-2" d="M3583.75,1744.41c20.22,0,34.95,12.71,38.12,32.35h-76.54c3.18-19.93,17.91-32.35,38.41-32.35ZM3664.33,1790.91c0-49.97-35.24-80.58-80.87-80.58s-82.89,33.5-82.89,80,34.95,80,88.67,80c28.02,0,49.68-8.66,64.12-25.13l-23.97-25.99c-10.69,10.11-22.53,15.02-38.99,15.02-23.68,0-40.15-11.84-44.48-31.19h117.55c.29-3.75.87-8.66.87-12.13Z"/>
  <path class="cls-2" d="M3746.64,1870.34c46.5,0,73.36-20.51,73.36-49.39,0-61.23-93.87-35.52-93.87-62.1,0-8.09,8.66-14.44,28.88-14.44,14.15,0,29.46,2.89,44.77,11.55l15.02-32.06c-14.73-8.66-38.41-13.57-59.79-13.57-45.34,0-71.92,20.8-71.92,50.25,0,62.1,93.87,36.1,93.87,61.52,0,8.66-7.8,14.15-28.59,14.15-19.06,0-40.15-6.07-54.01-15.02l-15.02,32.35c14.44,9.53,41.01,16.75,67.3,16.75Z"/>
</svg>